<svg width="24" height="24" viewBox="0 0 24 24" fill="none" xmlns="http://www.w3.org/2000/svg">
<g clip-path="url(#clip0_381_38)">
<path d="M17.3643 4C20.2018 4 22.4999 6.2589 22.5 9.13184C22.5 10.5479 21.9409 11.5481 20.9473 12.7021L12.0039 21.7871L3.0459 12.6973C2.05703 11.5465 1.50005 10.5379 1.5 9.12207C1.5 6.25572 3.78753 4.05957 6.63379 4.05957C8.92034 4.05959 10.8574 5.55508 11.5225 7.65527L12 9.16211L12.4766 7.65527C13.1436 5.54685 15.0859 4.00007 17.3643 4Z" fill="#772E87" stroke="#AC4FC1"/>
<g filter="url(#filter0_d_381_38)">
<path d="M12.9936 9.18101L17.021 15.0943C17.5878 15.9266 16.708 16.9802 15.788 16.5709L12.585 15.1458C12.3324 15.0334 12.0447 15.0306 11.79 15.1379L8.27488 16.6196C7.34423 17.0119 6.48499 15.9344 7.07451 15.1144L11.3551 9.16021C11.7604 8.59647 12.6027 8.60716 12.9936 9.18101Z" fill="white"/>
<path d="M12.9936 9.18101L17.021 15.0943C17.5878 15.9266 16.708 16.9802 15.788 16.5709L12.585 15.1458C12.3324 15.0334 12.0447 15.0306 11.79 15.1379L8.27488 16.6196C7.34423 17.0119 6.48499 15.9344 7.07451 15.1144L11.3551 9.16021C11.7604 8.59647 12.6027 8.60716 12.9936 9.18101Z" stroke="#AC4FC1"/>
</g>
<path d="M13.1553 3.10335L21.372 18.4578C21.8447 19.3411 20.8693 20.2934 19.9976 19.7998L12.777 15.711C12.4784 15.5419 12.1139 15.5378 11.8115 15.7L4.04031 19.869C3.15756 20.3425 2.2042 19.3682 2.69688 18.4959L11.4029 3.08335C11.7907 2.39687 12.7833 2.4082 13.1553 3.10335Z" fill="white" stroke="#AC4FC1"/>
</g>
<defs>
<filter id="filter0_d_381_38" x="2.37811" y="8.24396" width="19.3247" height="16.9612" filterUnits="userSpaceOnUse" color-interpolation-filters="sRGB">
<feFlood flood-opacity="0" result="BackgroundImageFix"/>
<feColorMatrix in="SourceAlpha" type="matrix" values="0 0 0 0 0 0 0 0 0 0 0 0 0 0 0 0 0 0 127 0" result="hardAlpha"/>
<feOffset dy="4"/>
<feGaussianBlur stdDeviation="2"/>
<feComposite in2="hardAlpha" operator="out"/>
<feColorMatrix type="matrix" values="0 0 0 0 0 0 0 0 0 0 0 0 0 0 0 0 0 0 0.45 0"/>
<feBlend mode="normal" in2="BackgroundImageFix" result="effect1_dropShadow_381_38"/>
<feBlend mode="normal" in="SourceGraphic" in2="effect1_dropShadow_381_38" result="shape"/>
</filter>
<clipPath id="clip0_381_38">
<rect width="24" height="24" fill="white"/>
</clipPath>
</defs>
</svg>
