<svg width="24" height="24" viewBox="0 0 24 24" fill="none" xmlns="http://www.w3.org/2000/svg">
<rect width="24" height="24" fill="#612B6D"/>
<path d="M22.1314 18.1733C23.1056 20.0395 21.0529 22.0283 19.2183 20.9955L14.0572 18.0893L19.3052 12.7592L22.1314 18.1733ZM10.3052 18.0873L5.16459 20.9828C3.30857 22.0273 1.2463 19.984 2.27397 18.1186L5.16459 12.8715L10.3052 18.0873ZM14.0572 18.0893L12.1841 19.9936L10.3052 18.0873L12.1792 17.0326L14.0572 18.0893ZM15.9615 14.7201L13.3199 13.2328L13.1851 13.1625C12.5502 12.8578 11.8102 12.8577 11.1753 13.1625L11.0406 13.2328L8.64213 14.5824L12.3638 7.82853L15.9615 14.7201ZM8.02592 5.3295C8.44675 5.32951 8.86219 5.36604 9.26127 5.4379L5.16459 12.8715L4.96538 12.6693C4.16281 11.7381 3.66367 10.8678 3.66362 9.63614C3.66362 7.19486 5.61684 5.3295 8.02592 5.3295ZM16.3335 5.28361C18.7421 5.28361 20.6968 7.20361 20.6968 9.64396C20.6968 10.8748 20.1974 11.738 19.3941 12.6693L19.3052 12.7592L15.4351 5.34708C15.7208 5.3058 16.0206 5.28362 16.3335 5.28361ZM10.6333 2.96036C11.4717 1.66257 13.3955 1.68421 14.2046 3.0004L14.2818 3.13614L15.4351 5.34708C13.9452 5.56236 12.8475 6.34926 12.3746 7.84415C11.9326 6.44807 10.7066 5.69817 9.26127 5.4379L10.5533 3.09415L10.6333 2.96036Z" fill="white"/>
</svg>
