<svg width="52" height="49" viewBox="0 0 52 49" fill="none" xmlns="http://www.w3.org/2000/svg">
<path d="M50.3331 39.5833C53.0963 44.8761 47.2735 50.5181 42.0704 47.5891L30.3086 40.968L43.8663 27.1975L50.3331 39.5833ZM20.6172 40.9631L8.97563 47.5178C3.71122 50.4813 -2.13816 44.6848 0.77739 39.3938L7.33696 27.4885L20.6172 40.9631ZM30.3086 40.968L25.4688 45.885L20.6172 40.9631L25.459 38.2375L30.3086 40.968ZM35.2295 32.262L28.4034 28.4192L28.0557 28.2385C26.2982 27.3949 24.2297 27.4549 22.5166 28.4192L16.3204 31.9065L25.9356 14.4602L35.2295 32.262ZM14.7276 8.00317C15.816 8.00318 16.8918 8.09148 17.9239 8.27759L7.33696 27.4885L6.82133 26.9651C4.74796 24.5593 3.46001 22.3102 3.46001 19.1282C3.46024 12.822 8.50456 8.00317 14.7276 8.00317ZM36.1885 7.88501C42.4103 7.88501 47.4598 12.8449 47.46 19.1487C47.46 22.3283 46.171 24.5593 44.0957 26.9651L43.8663 27.1975L33.8663 8.04419C34.6045 7.93752 35.38 7.88502 36.1885 7.88501ZM20.8868 2.9104C23.2363 -1.02166 28.9831 -0.956671 31.2432 3.02759L31.3497 3.2229L33.8663 8.04419C30.0174 8.60034 27.1815 10.6383 25.96 14.5002C24.8186 10.8951 21.6559 8.95054 17.9239 8.27759L20.7754 3.10376L20.8868 2.9104Z" fill="#612B6D"/>
</svg>
