<svg width="24" height="24" viewBox="0 0 24 24" fill="none" xmlns="http://www.w3.org/2000/svg">
<rect width="24" height="24" fill="white"/>
<path d="M23.0088 19.7129C24.0914 21.7865 21.8099 23.9971 19.7715 22.8496L14.0371 19.6211L19.8682 13.6982L23.0088 19.7129ZM9.86719 19.6182L4.15625 22.835C2.09377 23.996 -0.198013 21.7252 0.944336 19.6523L4.15625 13.8232L9.86719 19.6182ZM14.0371 19.6211L11.9551 21.7363L9.86719 19.6182L11.9502 18.4463L14.0371 19.6211ZM16.1523 15.876L13.2168 14.2236C12.4799 13.8089 11.5899 13.7834 10.834 14.1465L10.6855 14.2236L8.01953 15.7236L12.1543 8.21973L16.1523 15.876ZM7.33496 5.44238C7.8027 5.4424 8.26445 5.48355 8.70801 5.56348L4.15625 13.8232L3.93457 13.5986C3.04276 12.5638 2.48828 11.5962 2.48828 10.2275C2.48848 7.51518 4.65833 5.44238 7.33496 5.44238ZM16.5654 5.3916C19.2415 5.3916 21.4139 7.52501 21.4141 10.2363C21.4141 11.604 20.8594 12.5638 19.9668 13.5986L19.8682 13.6982L15.5684 5.46191C15.8854 5.41617 16.2182 5.39161 16.5654 5.3916ZM10.2324 2.81055C11.164 1.36884 13.3011 1.39238 14.2002 2.85449L14.2861 3.00586L15.5684 5.46191C13.9121 5.70084 12.6916 6.57571 12.166 8.2373C11.675 6.68634 10.3136 5.85279 8.70801 5.56348L10.1436 2.95898L10.2324 2.81055Z" fill="#612B6D"/>
</svg>
